# xmcd
#
# Track frame offsets: 
#        150
#        14298
#        29705
#        45931
#        57532
#        76083
#        94669
#        116321
#        132358
#        150085
#        166234
#
# Disc length: 2477 seconds
#
# Revision: 0
# Processed by: cddbd v1.5.1PL2 Copyright (c) Steve Scherf et al.
# Submitted via: ExactAudioCopy v0.95b4
#
DISCID=7709ab0b
DTITLE=Minglewood Band - Movin
DYEAR=1980
DGENRE=Blues
TTITLE0=Ain't Got That Much to Lose
TTITLE1=Me And My Baby
TTITLE2=Tight Rope
TTITLE3=Rocket Fuel
TTITLE4=Price He Pays
TTITLE5=Countin' On You
TTITLE6=Dorchester
TTITLE7=Jed
TTITLE8=Don't Give it Up
TTITLE9=If You Really Need Me
TTITLE10=East Coast Blues
EXTD=
EXTT0=
EXTT1=
EXTT2=
EXTT3=
EXTT4=
EXTT5=
EXTT6=
EXTT7=
EXTT8=
EXTT9=
EXTT10=
PLAYORDER=
